<mxfile host="app.diagrams.net" agent="Mozilla/5.0 (Windows NT 10.0; Win64; x64) AppleWebKit/537.36 (KHTML, like Gecko) Chrome/130.0.0.0 Safari/537.36 Edg/130.0.0.0" version="24.8.6">
  <diagram name="第 1 页" id="xAYFOKrb2QmvivIo7eho">
    <mxGraphModel dx="1427" dy="904" grid="1" gridSize="10" guides="1" tooltips="1" connect="1" arrows="1" fold="1" page="1" pageScale="1" pageWidth="1390" pageHeight="980" math="0" shadow="0">
      <root>
        <mxCell id="0" />
        <mxCell id="1" parent="0" />
        <mxCell id="BTzateQKtIyurhF0B4lp-12" value="Raw Card Info" style="edgeStyle=orthogonalEdgeStyle;rounded=0;orthogonalLoop=1;jettySize=auto;html=1;exitX=1;exitY=0.5;exitDx=0;exitDy=0;entryX=0;entryY=0.5;entryDx=0;entryDy=0;curved=1;fontSize=15;" parent="1" source="BTzateQKtIyurhF0B4lp-1" target="BTzateQKtIyurhF0B4lp-6" edge="1">
          <mxGeometry relative="1" as="geometry" />
        </mxCell>
        <mxCell id="BTzateQKtIyurhF0B4lp-1" value="Receiver" style="ellipse;whiteSpace=wrap;html=1;aspect=fixed;fontSize=15;" parent="1" vertex="1">
          <mxGeometry x="250" y="410" width="80" height="80" as="geometry" />
        </mxCell>
        <mxCell id="BTzateQKtIyurhF0B4lp-2" value="Use Card" style="endArrow=classic;html=1;rounded=0;entryX=-0.004;entryY=0.388;entryDx=0;entryDy=0;entryPerimeter=0;fontSize=15;" parent="1" target="BTzateQKtIyurhF0B4lp-1" edge="1">
          <mxGeometry width="50" height="50" relative="1" as="geometry">
            <mxPoint x="100" y="240" as="sourcePoint" />
            <mxPoint x="120" y="150" as="targetPoint" />
            <Array as="points">
              <mxPoint x="170" y="280" />
            </Array>
          </mxGeometry>
        </mxCell>
        <mxCell id="BTzateQKtIyurhF0B4lp-6" value="Clarify Data" style="ellipse;whiteSpace=wrap;html=1;aspect=fixed;fontSize=15;" parent="1" vertex="1">
          <mxGeometry x="330" y="180" width="80" height="80" as="geometry" />
        </mxCell>
        <mxCell id="BTzateQKtIyurhF0B4lp-21" value="Find Hand Card" style="edgeStyle=orthogonalEdgeStyle;shape=connector;curved=1;rounded=0;orthogonalLoop=1;jettySize=auto;html=1;strokeColor=default;align=center;verticalAlign=middle;fontFamily=Helvetica;fontSize=15;fontColor=default;labelBackgroundColor=default;endArrow=classic;" parent="1" source="BTzateQKtIyurhF0B4lp-13" target="BTzateQKtIyurhF0B4lp-16" edge="1">
          <mxGeometry x="0.009" relative="1" as="geometry">
            <Array as="points">
              <mxPoint x="480" y="435" />
              <mxPoint x="460" y="435" />
            </Array>
            <mxPoint as="offset" />
          </mxGeometry>
        </mxCell>
        <mxCell id="BTzateQKtIyurhF0B4lp-13" value="Process&lt;div&gt;Data&lt;/div&gt;" style="ellipse;whiteSpace=wrap;html=1;aspect=fixed;fontSize=15;" parent="1" vertex="1">
          <mxGeometry x="450" y="290" width="80" height="80" as="geometry" />
        </mxCell>
        <mxCell id="BTzateQKtIyurhF0B4lp-15" value="Card Info" style="endArrow=classic;html=1;rounded=0;strokeColor=default;align=center;verticalAlign=middle;fontFamily=Helvetica;fontSize=15;fontColor=default;labelBackgroundColor=default;edgeStyle=orthogonalEdgeStyle;curved=1;exitX=1;exitY=1;exitDx=0;exitDy=0;entryX=0.338;entryY=0.013;entryDx=0;entryDy=0;entryPerimeter=0;" parent="1" source="BTzateQKtIyurhF0B4lp-6" target="BTzateQKtIyurhF0B4lp-13" edge="1">
          <mxGeometry width="50" height="50" relative="1" as="geometry">
            <mxPoint x="440" y="260" as="sourcePoint" />
            <mxPoint x="490" y="210" as="targetPoint" />
          </mxGeometry>
        </mxCell>
        <mxCell id="BTzateQKtIyurhF0B4lp-16" value="&lt;div style=&quot;font-size: 15px;&quot;&gt;Hand&lt;/div&gt;Card" style="ellipse;whiteSpace=wrap;html=1;aspect=fixed;fontFamily=Helvetica;fontSize=15;fontColor=default;labelBackgroundColor=default;" parent="1" vertex="1">
          <mxGeometry x="410" y="530" width="80" height="80" as="geometry" />
        </mxCell>
        <mxCell id="BTzateQKtIyurhF0B4lp-25" value="Card Funtion" style="edgeStyle=orthogonalEdgeStyle;shape=connector;curved=1;rounded=0;orthogonalLoop=1;jettySize=auto;html=1;entryX=0.5;entryY=0;entryDx=0;entryDy=0;strokeColor=default;align=center;verticalAlign=middle;fontFamily=Helvetica;fontSize=15;fontColor=default;labelBackgroundColor=default;endArrow=classic;" parent="1" source="BTzateQKtIyurhF0B4lp-17" target="BTzateQKtIyurhF0B4lp-22" edge="1">
          <mxGeometry relative="1" as="geometry">
            <mxPoint x="780" y="420" as="targetPoint" />
          </mxGeometry>
        </mxCell>
        <mxCell id="BTzateQKtIyurhF0B4lp-17" value="Card Function&lt;div style=&quot;font-size: 15px;&quot;&gt;Pool&lt;/div&gt;" style="ellipse;whiteSpace=wrap;html=1;aspect=fixed;fontFamily=Helvetica;fontSize=15;fontColor=default;labelBackgroundColor=default;" parent="1" vertex="1">
          <mxGeometry x="690" y="270" width="80" height="80" as="geometry" />
        </mxCell>
        <mxCell id="BTzateQKtIyurhF0B4lp-20" value="Find Function" style="edgeStyle=orthogonalEdgeStyle;shape=connector;curved=1;rounded=0;orthogonalLoop=1;jettySize=auto;html=1;entryX=0.013;entryY=0.621;entryDx=0;entryDy=0;entryPerimeter=0;strokeColor=default;align=center;verticalAlign=middle;fontFamily=Helvetica;fontSize=15;fontColor=default;labelBackgroundColor=default;endArrow=classic;" parent="1" source="BTzateQKtIyurhF0B4lp-13" target="BTzateQKtIyurhF0B4lp-17" edge="1">
          <mxGeometry relative="1" as="geometry" />
        </mxCell>
        <mxCell id="BTzateQKtIyurhF0B4lp-28" value="Processed&lt;div&gt;Data&lt;/div&gt;" style="edgeStyle=orthogonalEdgeStyle;shape=connector;curved=1;rounded=0;orthogonalLoop=1;jettySize=auto;html=1;entryX=0;entryY=0.5;entryDx=0;entryDy=0;strokeColor=default;align=center;verticalAlign=middle;fontFamily=Helvetica;fontSize=15;fontColor=default;labelBackgroundColor=default;endArrow=classic;" parent="1" source="BTzateQKtIyurhF0B4lp-22" target="BTzateQKtIyurhF0B4lp-26" edge="1">
          <mxGeometry relative="1" as="geometry" />
        </mxCell>
        <mxCell id="BTzateQKtIyurhF0B4lp-38" style="edgeStyle=orthogonalEdgeStyle;shape=connector;curved=1;rounded=0;orthogonalLoop=1;jettySize=auto;html=1;exitX=0.5;exitY=0;exitDx=0;exitDy=0;strokeColor=default;align=center;verticalAlign=middle;fontFamily=Helvetica;fontSize=11;fontColor=default;labelBackgroundColor=default;endArrow=classic;" parent="1" source="BTzateQKtIyurhF0B4lp-22" edge="1">
          <mxGeometry relative="1" as="geometry">
            <mxPoint x="709.3846153846152" y="549.9999999999998" as="targetPoint" />
          </mxGeometry>
        </mxCell>
        <mxCell id="BTzateQKtIyurhF0B4lp-22" value="Merge" style="ellipse;whiteSpace=wrap;html=1;aspect=fixed;fontFamily=Helvetica;fontSize=15;fontColor=default;labelBackgroundColor=default;" parent="1" vertex="1">
          <mxGeometry x="670" y="530" width="80" height="80" as="geometry" />
        </mxCell>
        <mxCell id="BTzateQKtIyurhF0B4lp-23" value="Hand Card&lt;div style=&quot;font-size: 15px;&quot;&gt;Data&lt;/div&gt;" style="edgeStyle=orthogonalEdgeStyle;shape=connector;curved=1;rounded=0;orthogonalLoop=1;jettySize=auto;html=1;entryX=-0.012;entryY=0.379;entryDx=0;entryDy=0;entryPerimeter=0;strokeColor=default;align=center;verticalAlign=middle;fontFamily=Helvetica;fontSize=15;fontColor=default;labelBackgroundColor=default;endArrow=classic;" parent="1" source="BTzateQKtIyurhF0B4lp-16" target="BTzateQKtIyurhF0B4lp-22" edge="1">
          <mxGeometry relative="1" as="geometry" />
        </mxCell>
        <mxCell id="BTzateQKtIyurhF0B4lp-26" value="Deal with&lt;div&gt;Data&lt;/div&gt;" style="ellipse;whiteSpace=wrap;html=1;aspect=fixed;fontFamily=Helvetica;fontSize=15;fontColor=default;labelBackgroundColor=default;" parent="1" vertex="1">
          <mxGeometry x="880" y="310" width="80" height="80" as="geometry" />
        </mxCell>
        <mxCell id="BTzateQKtIyurhF0B4lp-29" value="Deal in&lt;div style=&quot;font-size: 15px;&quot;&gt;Game&lt;/div&gt;" style="ellipse;whiteSpace=wrap;html=1;aspect=fixed;fontFamily=Helvetica;fontSize=15;fontColor=default;labelBackgroundColor=default;" parent="1" vertex="1">
          <mxGeometry x="980" y="150" width="80" height="80" as="geometry" />
        </mxCell>
        <mxCell id="BTzateQKtIyurhF0B4lp-30" value="Deal with&lt;div style=&quot;font-size: 15px;&quot;&gt;Database&lt;/div&gt;" style="ellipse;whiteSpace=wrap;html=1;aspect=fixed;fontFamily=Helvetica;fontSize=15;fontColor=default;labelBackgroundColor=default;" parent="1" vertex="1">
          <mxGeometry x="1020" y="490" width="90" height="90" as="geometry" />
        </mxCell>
        <mxCell id="BTzateQKtIyurhF0B4lp-32" value="Raw FeedBack" style="endArrow=classic;html=1;rounded=0;strokeColor=default;align=center;verticalAlign=middle;fontFamily=Helvetica;fontSize=15;fontColor=default;labelBackgroundColor=default;edgeStyle=orthogonalEdgeStyle;curved=1;exitX=0.421;exitY=-0.037;exitDx=0;exitDy=0;exitPerimeter=0;entryX=0;entryY=0.5;entryDx=0;entryDy=0;" parent="1" source="BTzateQKtIyurhF0B4lp-26" target="BTzateQKtIyurhF0B4lp-29" edge="1">
          <mxGeometry width="50" height="50" relative="1" as="geometry">
            <mxPoint x="750" y="290" as="sourcePoint" />
            <mxPoint x="800" y="240" as="targetPoint" />
            <Array as="points">
              <mxPoint x="880" y="307" />
              <mxPoint x="880" y="206" />
              <mxPoint x="980" y="206" />
            </Array>
          </mxGeometry>
        </mxCell>
        <mxCell id="BTzateQKtIyurhF0B4lp-34" value="Card Alteration" style="endArrow=classic;html=1;rounded=0;strokeColor=default;align=center;verticalAlign=middle;fontFamily=Helvetica;fontSize=15;fontColor=default;labelBackgroundColor=default;edgeStyle=orthogonalEdgeStyle;curved=1;exitX=1;exitY=1;exitDx=0;exitDy=0;entryX=0;entryY=0.5;entryDx=0;entryDy=0;" parent="1" source="BTzateQKtIyurhF0B4lp-26" target="BTzateQKtIyurhF0B4lp-30" edge="1">
          <mxGeometry width="50" height="50" relative="1" as="geometry">
            <mxPoint x="960" y="350" as="sourcePoint" />
            <mxPoint x="1010" y="300" as="targetPoint" />
          </mxGeometry>
        </mxCell>
        <mxCell id="BTzateQKtIyurhF0B4lp-35" value="Feedback&lt;div style=&quot;font-size: 15px;&quot;&gt;info to Player&lt;/div&gt;" style="endArrow=classic;html=1;rounded=0;strokeColor=default;align=center;verticalAlign=middle;fontFamily=Helvetica;fontSize=15;fontColor=default;labelBackgroundColor=default;edgeStyle=orthogonalEdgeStyle;curved=1;exitX=1;exitY=0.5;exitDx=0;exitDy=0;" parent="1" source="BTzateQKtIyurhF0B4lp-29" edge="1">
          <mxGeometry width="50" height="50" relative="1" as="geometry">
            <mxPoint x="1090" y="250" as="sourcePoint" />
            <mxPoint x="1240" y="200" as="targetPoint" />
          </mxGeometry>
        </mxCell>
        <mxCell id="BTzateQKtIyurhF0B4lp-36" value="Feedback info&lt;div style=&quot;font-size: 15px;&quot;&gt;to DataSystem&lt;/div&gt;" style="endArrow=classic;html=1;rounded=0;strokeColor=default;align=center;verticalAlign=middle;fontFamily=Helvetica;fontSize=15;fontColor=default;labelBackgroundColor=default;edgeStyle=orthogonalEdgeStyle;curved=1;exitX=1;exitY=0.5;exitDx=0;exitDy=0;" parent="1" source="BTzateQKtIyurhF0B4lp-30" edge="1">
          <mxGeometry x="0.0033" width="50" height="50" relative="1" as="geometry">
            <mxPoint x="1120" y="380" as="sourcePoint" />
            <mxPoint x="1270" y="370" as="targetPoint" />
            <Array as="points">
              <mxPoint x="1170" y="535" />
              <mxPoint x="1170" y="370" />
              <mxPoint x="1230" y="370" />
            </Array>
            <mxPoint as="offset" />
          </mxGeometry>
        </mxCell>
      </root>
    </mxGraphModel>
  </diagram>
</mxfile>
